<svg xmlns="http://www.w3.org/2000/svg" viewBox="0 0 16 16" fill="none">
  <rect x="1" y="1" width="14" height="14" rx="3" fill="#171A20"></rect>
  <path d="M3.4 5.1L12.5 3.6C12.8 3.6 13 3.8 13 4.1V5.5C13 5.8 12.8 6 12.5 6L3.8 7.4C3.5 7.4 3.2 7.2 3.2 6.8V5.8C3.2 5.5 3.2 5.2 3.4 5.1Z" fill="#FF9800"></path>
  <path d="M4.1 8L12.7 6.6C12.9 6.5 13.2 6.7 13.2 7V8.3C13.2 8.5 13 8.7 12.8 8.8L4.4 10.1C4 10.2 3.7 9.9 3.7 9.5V8.6C3.7 8.3 3.8 8.1 4.1 8Z" fill="#FFAF31"></path>
  <path d="M5 10.8L12.9 9.5C13.1 9.4 13.3 9.6 13.3 9.8V11.1C13.3 11.3 13.1 11.5 12.9 11.5L5.3 12.8C4.9 12.9 4.6 12.6 4.6 12.2V11.4C4.6 11.1 4.7 10.9 5 10.8Z" fill="#FFC260"></path>
</svg>
